<svg width="97" height="24" viewBox="0 0 97 24" fill="none" xmlns="http://www.w3.org/2000/svg">
<path d="M3.2799 18V9.84H9.0879V18H11.4879V-1.43051e-06H9.0879V7.632H3.2799V-1.43051e-06H0.879905V18H3.2799ZM18.3922 18.24C20.1202 18.24 21.6562 17.568 22.4482 15.984V18H24.8002V9.6C24.8002 6.816 22.4002 5.76 19.8082 5.76C17.1682 5.76 14.6722 6.936 14.6722 10.032H17.1682C17.1682 8.472 18.2482 7.68 19.8082 7.68C21.2722 7.68 22.4002 8.328 22.4002 9.504C22.4002 12.24 14.3122 9.648 14.3122 14.832C14.3122 17.208 16.2562 18.24 18.3922 18.24ZM16.7602 14.688C16.7602 12.672 20.4082 13.176 22.4482 12.192V13.056C22.4482 15.144 20.7202 16.224 18.8722 16.224C17.6482 16.224 16.7602 15.72 16.7602 14.688ZM28.0315 18H34.1755C36.6715 18 38.2075 16.848 38.2075 14.544C38.2075 13.032 37.3675 12.072 36.0475 11.64C37.0795 11.208 37.7035 10.392 37.7035 9.12C37.7035 7.032 36.1915 6 33.9835 6H28.0315V18ZM33.2875 7.824C34.7755 7.824 35.3995 8.304 35.3995 9.384C35.3995 10.392 34.7755 10.944 33.2875 10.944H30.3355V7.824H33.2875ZM33.7675 12.768C35.1115 12.768 35.8075 13.368 35.8075 14.472C35.8075 15.576 35.1115 16.176 33.7675 16.176H30.3355V12.768H33.7675ZM52.0925 12.816C52.1165 12.552 52.1405 12.288 52.1405 12C52.1405 8.328 49.6445 5.76 46.2365 5.76C42.8285 5.76 40.3325 8.328 40.3325 12C40.3325 15.672 42.8285 18.24 46.2365 18.24C48.9965 18.24 51.0845 16.872 51.8285 14.4H49.2365C48.7565 15.48 47.7965 16.128 46.3325 16.128C44.3165 16.128 42.9725 14.904 42.6845 12.816H52.0925ZM46.2365 7.872C48.1565 7.872 49.4765 9.072 49.7645 11.088H42.7085C42.9965 9.072 44.2925 7.872 46.2365 7.872ZM57.1143 24V16.2C58.0503 17.472 59.4423 18.24 61.0503 18.24C64.3383 18.24 66.8103 15.672 66.8103 12C66.8103 8.328 64.3383 5.76 61.0503 5.76C59.4423 5.76 58.0503 6.528 57.1143 7.8V6H54.7143V24H57.1143ZM60.7623 16.032C58.6743 16.032 57.1143 14.424 57.1143 12C57.1143 9.576 58.6743 7.968 60.7623 7.968C62.8503 7.968 64.4103 9.576 64.4103 12C64.4103 14.424 62.8503 16.032 60.7623 16.032ZM70.2735 18L73.4895 13.56L76.9455 18H79.7535L75.0495 11.856L79.5135 6H76.7055L73.6815 10.08L70.5135 6H67.7055L72.1695 11.784L67.4655 18H70.2735ZM96.3888 10.848L91.3008 5.76L86.1888 10.848L87.3888 12.048L90.4608 9V16.8H92.0928V8.952L95.1888 12.048L96.3888 10.848Z" fill="black"/>
</svg>
